<svg width="274" height="177" viewBox="0 0 274 177" fill="none" xmlns="http://www.w3.org/2000/svg">
<path d="M76.6465 7.73664L31.9045 61.2086L126.79 59.4866L155.482 1.15564L76.6465 7.73664Z" fill="#FFF040"/>
<path d="M37.3023 126.484L133.998 127.72L130.979 50.9696L126.789 59.4866L35.6523 61.1406L37.3023 126.484Z" fill="#FFF040"/>
<path d="M133.999 127.72L131.052 50.8227L153.615 4.95068L157.04 89.4297L133.999 127.72Z" fill="#FF577F"/>
<path d="M38.113 71.8705L129.784 69.6536" stroke="black" stroke-width="2" stroke-linecap="round" stroke-linejoin="round"/>
<path d="M37.7805 81.625L128.675 79.8514" stroke="black" stroke-width="2" stroke-linecap="round" stroke-linejoin="round"/>
<path d="M72.0325 97.2547L72.4525 126.934L93.0585 127.197L92.2065 96.7007L72.0325 97.2547Z" fill="black"/>
<path d="M40.5515 121.308L69.4826 121.419" stroke="black" stroke-width="2" stroke-linecap="round" stroke-linejoin="round"/>
<path d="M39.8865 111L68.7067 110.445" stroke="black" stroke-width="2" stroke-linecap="round" stroke-linejoin="round"/>
<path d="M41.2166 100.691L67.3764 100.247" stroke="black" stroke-width="2" stroke-linecap="round" stroke-linejoin="round"/>
<path d="M95.9751 101.245L130.67 100.58" stroke="black" stroke-width="2" stroke-linecap="round" stroke-linejoin="round"/>
<path d="M96.1968 112.44L131.003 111.775" stroke="black" stroke-width="2" stroke-linecap="round" stroke-linejoin="round"/>
<path d="M98.3833 120.016L127.223 119.709" stroke="black" stroke-width="2" stroke-linecap="round" stroke-linejoin="round"/>
<path d="M39.7117 92.1969L71.5887 91.4904" stroke="black" stroke-width="2" stroke-linecap="round" stroke-linejoin="round"/>
<path d="M99.4114 90.6037L126.015 89.9386" stroke="black" stroke-width="2" stroke-linecap="round" stroke-linejoin="round"/>
<path d="M136.323 108.45L154.724 78.5214" stroke="black" stroke-width="2" stroke-linecap="round" stroke-linejoin="round"/>
<path d="M135.215 92.9314L153.948 63.0027" stroke="black" stroke-width="2" stroke-linecap="round" stroke-linejoin="round"/>
<path d="M134.771 76.1936L152.174 48.7035" stroke="black" stroke-width="2" stroke-linecap="round" stroke-linejoin="round"/>
<path d="M136.582 57.8049L148.184 38.173" stroke="black" stroke-width="2" stroke-linecap="round" stroke-linejoin="round"/>
<path d="M82.0413 13.4153L51.5417 49.7187" stroke="black" stroke-width="2" stroke-linecap="round" stroke-linejoin="round"/>
<path d="M86.8904 23.125L70.79 42.74" stroke="black" stroke-width="2" stroke-linecap="round" stroke-linejoin="round"/>
<path d="M104.157 13.8979L89.5481 33.9103" stroke="black" stroke-width="2" stroke-linecap="round" stroke-linejoin="round"/>
<path d="M106.474 25.2686L87.426 48.3383" stroke="black" stroke-width="2" stroke-linecap="round" stroke-linejoin="round"/>
<path d="M125.235 11.5851L105.825 40.396" stroke="black" stroke-width="2" stroke-linecap="round" stroke-linejoin="round"/>
<path d="M129.896 19.4629L112.204 49.8989" stroke="black" stroke-width="2" stroke-linecap="round" stroke-linejoin="round"/>
<path d="M142.668 9.34607L131.269 31.3807" stroke="black" stroke-width="2" stroke-linecap="round" stroke-linejoin="round"/>
<path d="M22.7817 87.2306C22.7817 87.2306 21.6242 106.555 6.94479 118.917C10.8834 122.513 14.6105 122.883 20.0376 121.099C16.6363 130.097 9.72904 139.238 1.64428 142.369C12.5073 145.805 17.6063 141.593 17.6063 141.593C14.8463 146.88 11.1017 153.536 0.876465 160.479C13.4886 165.455 28.6649 164.328 38.0456 157.966C32.4018 151.24 28.3606 146.283 26.5689 141.013C32.9031 144.032 39.8863 142.48 39.8863 142.48C34.067 136.456 29.8408 129.076 27.5894 121.008C32.441 121.543 38.4669 119.998 42.1754 116.444C32.6185 114.931 27.5381 100.716 22.7817 87.2306Z" fill="#2EE57C"/>
<path d="M27.3772 162.73C22.9253 163.584 18.3816 163.857 13.8596 163.542L14.116 175.462L26.2599 175.316L27.3772 162.73Z" fill="#FF577F"/>
<path d="M183.744 38.2878C183.744 38.2878 183.098 61.126 167.955 64.8345C172.899 70.5517 177.429 72.7123 183.098 72.715C180.733 82.1326 173.821 83.4048 165.173 85.6947C169.036 92.03 174.29 95.584 182.48 96.5111C179.74 106.101 174.533 111.405 163.723 114.268C175.87 120.24 182.696 116.086 188.274 112.625C191.737 113.906 197.511 123.482 213.729 113.52C203.186 112.147 196 102.371 193.296 96.9747C200.767 97.3948 208.101 94.8392 213.693 89.8668C207.355 88.3381 195.317 88.7542 192.198 72.8345C197.777 73.3331 205.812 69.3155 209.057 64.8345C190.515 61.2805 183.744 38.2878 183.744 38.2878Z" fill="#2EE57C"/>
<path d="M195.842 117.156C192.165 115.805 189.949 113.245 188.274 112.625C186.073 114.094 183.712 115.31 181.236 116.247L183.189 137.107C185.516 138.03 188.034 138.369 190.522 138.093C193.01 137.817 195.393 136.936 197.461 135.526C196.892 127.695 195.842 117.156 195.842 117.156Z" fill="#FF577F"/>
<path d="M238.571 75.1874C238.571 75.1874 235.017 95.4295 219.256 104.701C223.737 108.564 228.662 111.584 237.18 111.654C233.935 117.217 230.529 121.704 220.492 123.552C225.184 128.278 231.476 131.075 238.128 131.394C233.03 140.38 228.196 144.238 216.975 151.99C231.95 156.122 246.439 162.349 273.577 147.76C260.048 143.21 248.329 132.352 248.329 132.352C256.159 132.467 263.802 129.954 270.037 125.215C258.435 123.776 250.352 118.207 245.833 111.191C251.087 112.272 260.049 110.263 264.839 106.4C240.602 97.4333 238.571 75.1874 238.571 75.1874Z" fill="#2EE57C"/>
<path d="M238.993 156.817C243.656 157.104 248.336 156.743 252.9 155.746L253.095 171.144C253.095 171.144 248.39 179.503 239.522 173.739C239.189 167.199 238.993 156.817 238.993 156.817Z" fill="#FF577F"/>
<path d="M31.9045 61.2086L126.79 59.4866L155.482 1.15564" stroke="black" stroke-width="2" stroke-linecap="round" stroke-linejoin="round"/>
<path d="M184.098 78.4104C184.098 78.4104 181.882 86.6131 171.24 87.6107" stroke="black" stroke-width="2" stroke-linecap="round" stroke-linejoin="round"/>
<path d="M182.325 57.793C180.735 61.2677 177.994 64.0868 174.566 65.774" stroke="black" stroke-width="2" stroke-linecap="round" stroke-linejoin="round"/>
<path d="M181.549 106.011C180.635 108.015 179.316 109.807 177.675 111.276C176.034 112.745 174.108 113.858 172.016 114.547" stroke="black" stroke-width="2" stroke-linecap="round" stroke-linejoin="round"/>
<path d="M184.542 118.426L185.761 129.511" stroke="black" stroke-width="2" stroke-linecap="round" stroke-linejoin="round"/>
<path d="M186.205 132.615L186.537 135.497" stroke="black" stroke-width="2" stroke-linecap="round" stroke-linejoin="round"/>
<path d="M234.755 94.9266C232.535 98.8477 229.421 102.19 225.666 104.681" stroke="black" stroke-width="2" stroke-linecap="round" stroke-linejoin="round"/>
<path d="M236.086 119.535C236.086 119.535 234.201 123.303 226.885 124.966" stroke="black" stroke-width="2" stroke-linecap="round" stroke-linejoin="round"/>
<path d="M234.534 143.478C231.504 146.084 228.28 148.455 224.89 150.572" stroke="black" stroke-width="2" stroke-linecap="round" stroke-linejoin="round"/>
<path d="M241.96 159.439C241.995 162.717 241.933 164.608 242.072 166.423" stroke="black" stroke-width="2" stroke-linecap="round" stroke-linejoin="round"/>
<path d="M242.293 172.298C242.186 171.346 242.135 170.388 242.141 169.43" stroke="black" stroke-width="2" stroke-linecap="round" stroke-linejoin="round"/>
<path d="M19.3799 109.226C19.3799 109.226 16.1653 115.101 12.2856 118.205" stroke="black" stroke-width="2" stroke-linecap="round" stroke-linejoin="round"/>
<path d="M19.2691 130.841C17.2977 134.379 14.6187 137.473 11.3989 139.931" stroke="black" stroke-width="2" stroke-linecap="round" stroke-linejoin="round"/>
<path d="M14.9458 151.237C14.9458 151.237 10.1794 157.777 7.4082 159.55" stroke="black" stroke-width="2" stroke-linecap="round" stroke-linejoin="round"/>
<path d="M16.7195 165.647V172.63" stroke="black" stroke-width="2" stroke-linecap="round" stroke-linejoin="round"/>
</svg>
