<svg width="104" height="127" viewBox="0 0 104 127" fill="none" xmlns="http://www.w3.org/2000/svg">
<path d="M0.244141 59.3571L4.09548 109.52C4.38615 113.227 5.89174 116.735 8.37886 119.5C10.866 122.265 14.1957 124.132 17.8518 124.812C32.7873 127.684 48.1417 127.592 63.0418 124.542C66.7865 123.775 70.16 121.76 72.6098 118.826C75.0596 115.892 76.4406 112.213 76.5265 108.391L77.6431 57.7452C77.6431 57.7452 38.2031 67.3725 0.244141 59.3571Z" fill="#FF577F"/>
<path d="M77.2991 73.3445L77.4015 68.6994C77.4015 68.6994 101.365 63.5025 103.253 79.3627C104.959 93.6906 93.1122 102.266 76.6294 103.72L76.7559 97.9804C76.7559 97.9804 97.0984 95.5197 96.9054 82.2618C96.7124 69.0039 77.2991 73.3445 77.2991 73.3445Z" fill="#FF577F"/>
<path d="M77.6431 57.7452C77.6431 57.7452 38.2031 67.3725 0.244141 59.3571C0.244141 59.3571 37.0742 43.1936 77.6431 57.7452Z" fill="#3C94FF"/>
<path d="M20.6424 3.98621C20.6424 3.98621 15.5305 7.97332 18.9759 16.6021C21.9121 23.9554 18.2093 27.169 18.0495 31.6187C17.845 37.3113 21.601 39.6007 21.601 39.6007" stroke="black" stroke-width="2" stroke-linecap="round" stroke-linejoin="round"/>
<path d="M38.8933 6.56824C35.0174 15.4756 40.2741 18.3164 40.4451 24.3038C40.6668 32.063 37.7848 34.28 40.0018 41.3742" stroke="black" stroke-width="2" stroke-linecap="round" stroke-linejoin="round"/>
<path d="M55.9636 1.02588C60.7679 7.24346 55.7419 14.1059 57.7372 21.6434C61.2337 34.8525 55.7419 41.5959 55.7419 41.5959" stroke="black" stroke-width="2" stroke-linecap="round" stroke-linejoin="round"/>
<path d="M5.1958 65.7605L7.63444 102.118" stroke="black" stroke-width="2" stroke-linecap="round" stroke-linejoin="round"/>
<path d="M7.63428 106.996C7.63428 106.996 8.07766 113.425 12.7333 117.415" stroke="black" stroke-width="2" stroke-linecap="round" stroke-linejoin="round"/>
</svg>
