<svg width="343" height="334" viewBox="0 0 343 334" fill="none" xmlns="http://www.w3.org/2000/svg">
<path d="M121.037 194.821C88.4565 196.632 80.0658 186.731 68.5823 176.265C64.6959 180.173 60.1603 185.498 50.8082 197.697C37.7433 214.391 26.8558 240.521 17.42 266.651C7.98415 292.781 0 317.125 0 329.798C59.105 337.611 148.685 326.769 148.685 326.769C159.966 258.215 119.2 227.411 119.685 204.313C119.722 201.109 120.174 197.923 121.031 194.835L121.037 194.821Z" fill="#2EE57C"/>
<path d="M68.5825 176.265C80.066 186.731 88.4567 196.632 121.038 194.822L121.031 194.835C122.484 189.312 125.867 184.492 130.569 181.25C134.974 190.838 140.157 191.615 145.858 191.874C151.559 192.134 158.556 187.21 162.443 184.359C168.144 189.801 170.359 193.825 173.586 191.097C176.386 188.731 172.032 185.655 174.623 183.582C177.199 181.522 178.79 187.886 181.879 185.655C184.257 183.938 182.061 177.822 184.135 175.749C184.714 175.183 185.406 174.745 186.166 174.463C186.926 174.182 187.737 174.064 188.545 174.116C189.354 174.169 190.143 174.391 190.86 174.768C191.577 175.145 192.207 175.669 192.708 176.306C196.049 181.762 198.498 185.547 201.616 184.211C204.627 182.921 203.233 178.1 203.233 175.922C203.233 173.745 200.33 161.405 206.862 151.97C217.75 138.905 230.459 144.517 237.347 137.453C244.239 130.385 247.695 125.118 242.655 109.161C236.594 89.9714 224.69 76.6237 201.144 80.9048C189.519 83.0184 176.377 102.613 175.651 109.145C174.926 115.678 169.845 116.404 169.845 107.694C168.887 96.1833 153.704 93.2213 144.704 107.768C136.72 120.107 134.279 122.211 122.666 132.372C111.052 142.534 84.9225 161.405 77.6642 167.938C75.171 170.182 70.9139 174.058 68.5824 176.265C67.9288 176.884 69.2506 175.593 68.5825 176.265Z" fill="#FF577F"/>
<path d="M162.295 114.102C164.27 111.908 164.517 109.382 162.712 107.16C160.305 104.198 151.05 103.412 151.712 116.506" stroke="black" stroke-width="2.3413" stroke-linecap="round" stroke-linejoin="round"/>
<path d="M159.172 121.332C158.359 118.083 152.649 113.08 147.324 121.551C142.498 129.23 149.299 136.031 153.248 136.031C157.197 136.031 161.146 129.23 159.172 121.332Z" fill="#2EE57C" stroke="black" stroke-width="2.3413" stroke-linecap="round" stroke-linejoin="round"/>
<path d="M157.855 119.358C154.345 121.991 150.187 123.234 151.273 127.037C152.151 130.109 154.564 130.109 156.539 128.792C158.346 127.588 160.049 123.088 157.855 119.358Z" fill="#FF577F" stroke="black" stroke-width="2.3413" stroke-linecap="round" stroke-linejoin="round"/>
<path d="M207.89 138.105L195.835 131.95L198.657 149.902" stroke="black" stroke-width="2.3413" stroke-linecap="round" stroke-linejoin="round"/>
<path d="M197.118 139.9C199.939 145.286 262.774 254.029 266.108 262.236" stroke="black" stroke-width="2.3413" stroke-linecap="round" stroke-linejoin="round"/>
<path d="M197.63 141.696C203.016 140.157 202.76 138.484 203.529 136.31L195.835 131.95L197.63 141.696Z" fill="white" stroke="black" stroke-width="2.3413" stroke-linecap="round" stroke-linejoin="round"/>
<path d="M298.68 218.381C290.216 210.686 272.263 198.376 267.134 194.272C262.004 190.169 252.259 180.936 246.873 176.32C241.487 171.703 223.021 161.188 202.76 138.875" stroke="black" stroke-width="2.3413" stroke-linecap="round" stroke-linejoin="round"/>
<path d="M340.933 176.487C337.033 174.132 334.609 175.433 322.314 198.268C310.018 221.103 281.913 269.584 263.293 296.986C267.86 303.661 272.524 310.332 272.524 310.332C278.145 300.144 336.366 192.647 338.474 188.431C340.582 184.215 344.653 178.732 340.933 176.487Z" fill="black"/>
<path d="M132.134 293.206C135.199 289.835 139.896 288.792 141.629 293.798" stroke="black" stroke-width="2.3413" stroke-linecap="round" stroke-linejoin="round"/>
<path d="M149.648 293.356C151.273 291.488 153.497 289.048 158.536 293.05" stroke="black" stroke-width="2.3413" stroke-linecap="round" stroke-linejoin="round"/>
<path d="M165.593 292.742C168.352 289.371 170.497 289.677 173.562 292.436" stroke="black" stroke-width="2.3413" stroke-linecap="round" stroke-linejoin="round"/>
<path d="M181.098 293.027C183.55 290.575 186.661 288.237 190.339 292.834" stroke="black" stroke-width="2.3413" stroke-linecap="round" stroke-linejoin="round"/>
<path d="M197.656 292.257C199.801 289.192 202.323 286.769 206.92 292.286" stroke="black" stroke-width="2.3413" stroke-linecap="round" stroke-linejoin="round"/>
<path d="M215.176 291.873C216.709 289.115 220.1 286.464 223.778 291.981" stroke="black" stroke-width="2.3413" stroke-linecap="round" stroke-linejoin="round"/>
<path d="M231.734 291.873C233.88 288.501 236.37 288.081 239.435 292.065" stroke="black" stroke-width="2.3413" stroke-linecap="round" stroke-linejoin="round"/>
<path d="M246.559 291.873C247.715 289.755 251.758 287.637 254.646 292.258" stroke="black" stroke-width="2.3413" stroke-linecap="round" stroke-linejoin="round"/>
<path d="M62.6899 195.991C67.6961 201.767 88.4902 213.897 103.892 206.003" stroke="black" stroke-width="2.3413" stroke-linecap="round" stroke-linejoin="round"/>
<path d="M55.7593 216.208C69.0644 222.418 77.0805 232.975 107.743 222.754" stroke="black" stroke-width="2.3413" stroke-linecap="round" stroke-linejoin="round"/>
<path d="M39.0894 230.533C43.1944 233.693 47.8011 236.14 52.7172 237.773" stroke="black" stroke-width="2.3413" stroke-linecap="round" stroke-linejoin="round"/>
<path d="M77.4175 238.626C84.2314 240.755 97.0075 241.607 111.913 233.941" stroke="black" stroke-width="2.3413" stroke-linecap="round" stroke-linejoin="round"/>
<path d="M109.358 264.177C115.004 260.557 120.41 256.574 125.541 252.253" stroke="black" stroke-width="2.3413" stroke-linecap="round" stroke-linejoin="round"/>
<path d="M107.743 275.7C113.279 274.848 123.666 274.339 134.313 262.415" stroke="black" stroke-width="2.3413" stroke-linecap="round" stroke-linejoin="round"/>
<path d="M31.4233 315.281C43.3477 313.578 69.7515 305.06 80.3983 301.653" stroke="black" stroke-width="2.3413" stroke-linecap="round" stroke-linejoin="round"/>
<path d="M57.8274 163.246C61.6602 161.117 63.3637 159.839 66.3448 158.136C62.6215 155.973 45.9362 146.687 39.9409 143.23" stroke="black" stroke-width="2.3413" stroke-linecap="round" stroke-linejoin="round"/>
<path d="M63.3635 145.359C64.1448 148.936 66.3446 158.135 66.3446 158.135" stroke="black" stroke-width="2.3413" stroke-linecap="round" stroke-linejoin="round"/>
<path d="M68.0483 118.53C72.3328 126.826 81.6761 145.36 81.6761 145.36" stroke="black" stroke-width="2.3413" stroke-linecap="round" stroke-linejoin="round"/>
<path d="M72.5796 142.809C75.9738 143.735 78.9978 144.599 81.6761 145.359C83.3796 139.397 85.2308 133.429 85.2308 133.429" stroke="black" stroke-width="2.3413" stroke-linecap="round" stroke-linejoin="round"/>
<path d="M99.1367 124.065C103.321 118.826 111.913 115.122 111.913 115.122" stroke="black" stroke-width="2.3413" stroke-linecap="round" stroke-linejoin="round"/>
<path d="M106.3 129.02C110.559 125.613 114.297 123.218 118.301 121.938" stroke="black" stroke-width="2.3413" stroke-linecap="round" stroke-linejoin="round"/>
<path d="M235.415 46.5583C228.175 35.9115 222.639 33.3562 214.973 32.9305C207.307 32.5047 200.494 37.6152 200.494 37.6152C196.066 35.9688 191.273 35.5664 186.633 36.4519C175.153 38.6044 138.082 49.1277 137.039 89.571C136.61 106.188 135.019 116.317 132.921 123.09C137.013 119.022 139.828 115.303 144.704 107.768C153.704 93.2215 168.887 96.1833 169.845 107.694C169.845 116.404 174.925 115.678 175.651 109.146C176.377 102.613 189.518 83.0186 201.144 80.9051C224.69 76.6241 236.594 89.9715 242.655 109.161C257.601 80.9051 242.655 57.2051 235.415 46.5583Z" fill="black"/>
<path d="M205.759 17.1648C203.783 22.4569 204.569 32.5802 214.973 32.93C225.377 33.2797 231.817 27.7138 231.118 18.2747C230.64 11.8172 226.813 10.1431 222.508 11.1C222.309 7.71268 211.506 1.77218 205.759 17.1648Z" fill="black"/>
<path d="M200.154 6.30569C202.952 8.26065 205.641 10.3656 208.211 12.6114C208.211 12.6114 214.517 10.8598 211.714 7.00633C208.912 3.15285 206.46 0 206.46 0L200.154 6.30569Z" fill="black"/>
<path d="M263.294 296.985C263.294 296.985 212.766 297.362 194.575 297.84C176.384 298.319 131.097 298.995 123.916 298.995C123.049 303.471 123.247 308.088 124.493 312.473C124.493 312.473 170.792 311.842 188.029 311.51C208.053 311.125 255.608 310.933 272.525 310.331L263.294 296.985Z" fill="black"/>
<path d="M59.9949 249.13C69.0439 254.136 82.5896 257.511 99.1532 256.63" stroke="black" stroke-width="2.3413" stroke-linecap="round" stroke-linejoin="round"/>
</svg>
