<svg width="232" height="214" viewBox="0 0 232 214" fill="none" xmlns="http://www.w3.org/2000/svg">
<path d="M219.756 11.6665C204.346 13.0063 43.5492 5.63574 43.5492 5.63574C43.5492 5.63574 42.2094 104.794 42.8787 113.504C62.3083 114.844 220.426 120.204 225.116 119.534C224.447 91.4114 219.762 11.7665 219.756 11.669V11.6665Z" fill="#3C94FF"/>
<path d="M225.975 8.16992C223.801 9.14549 221.719 10.3161 219.756 11.6674V11.6698C219.762 11.7674 224.447 91.4122 225.116 119.535C225.116 119.535 227.938 116.653 231.021 113.289C231.862 102.917 226.693 18.9325 225.975 8.16992Z" fill="black"/>
<path d="M65.3731 128.173C60.5197 136.569 54.684 151.392 50.6641 160.102" stroke="black" stroke-width="2.52888" stroke-linecap="round" stroke-linejoin="round"/>
<path d="M55.6883 18.752C55.3296 47.0937 54.2695 100.105 54.2695 100.105C64.9894 102.115 211.03 107.724 211.03 107.724C211.03 92.3139 212.522 40.9481 209.595 22.3395C194.185 22.3395 152.194 21.2632 130.31 20.9045C108.426 20.5457 95.1516 18.752 55.6883 18.752Z" fill="#FFF040"/>
<path d="M62.1152 86.9005L90.4478 65.2657C98.4876 69.9556 111.291 78.9553 111.291 78.9553C111.291 78.9553 142.037 55.8859 151.417 51.1959C157.447 59.2358 162.137 66.6056 162.137 66.6056C168.167 63.2557 173.526 54.5458 186.926 56.5558C195.701 50.9181 198.784 46.1527 206.913 43.9102" stroke="black" stroke-width="2.52888" stroke-linecap="round" stroke-linejoin="round"/>
<path d="M71.0176 29.0859V43.1557" stroke="black" stroke-width="2.52888" stroke-linecap="round" stroke-linejoin="round"/>
<path d="M71.4238 50.209L71.6897 63.2563" stroke="black" stroke-width="2.52888" stroke-linecap="round" stroke-linejoin="round"/>
<path d="M75.709 84.6953L76.0432 95.382" stroke="black" stroke-width="2.52888" stroke-linecap="round" stroke-linejoin="round"/>
<path d="M113.229 35.1152L111.219 51.195" stroke="black" stroke-width="2.52888" stroke-linecap="round" stroke-linejoin="round"/>
<path d="M111.216 59.2363L111.119 70.058" stroke="black" stroke-width="2.52888" stroke-linecap="round" stroke-linejoin="round"/>
<path d="M110.435 85.6289L109.877 94.7455" stroke="black" stroke-width="2.52888" stroke-linecap="round" stroke-linejoin="round"/>
<path d="M155.438 27.0762L152.758 42.4859" stroke="black" stroke-width="2.52888" stroke-linecap="round" stroke-linejoin="round"/>
<path d="M153.428 69.9561V82.0159" stroke="black" stroke-width="2.52888" stroke-linecap="round" stroke-linejoin="round"/>
<path d="M154.347 95.8857L153.988 104.496" stroke="black" stroke-width="2.52888" stroke-linecap="round" stroke-linejoin="round"/>
<path d="M184.916 29.7568V41.8166" stroke="black" stroke-width="2.52888" stroke-linecap="round" stroke-linejoin="round"/>
<path d="M184.916 65.2656V77.3254" stroke="black" stroke-width="2.52888" stroke-linecap="round" stroke-linejoin="round"/>
<path d="M185.586 93.4062L186.926 104.796" stroke="black" stroke-width="2.52888" stroke-linecap="round" stroke-linejoin="round"/>
<path d="M225.116 119.534C216.445 132.771 178.217 193.233 178.217 193.233C178.911 198.75 179.168 204.314 178.985 209.871C188.532 195.865 220.594 145.842 223.733 138.938C223.733 131.635 225.116 119.534 225.116 119.534Z" fill="black"/>
<path d="M33.0853 193.467C60.8239 195.277 96.4665 196.785 122.058 196.337C140.007 196.022 160.797 193.904 178.217 193.234C178.217 193.234 216.445 132.772 225.116 119.534C225.116 119.534 62.3081 113.505 42.8785 113.505C35.5092 135.614 11.2515 165.848 0 191.223C6.15302 190.988 15.7388 192.335 33.0853 193.467Z" fill="#2EE57C"/>
<path d="M178.217 193.234C160.797 193.904 140.007 196.022 122.058 196.337C96.4665 196.785 60.8239 195.277 33.0853 193.467C15.7388 192.335 6.15302 190.988 0 191.223C1.33976 198.594 2.73386 204.826 4.74417 208.176C21.6055 209.611 46.7188 211.404 85.8226 212.84C124.066 214.243 178.958 210.36 178.985 209.871C179.168 204.314 178.911 198.751 178.217 193.234Z" fill="#3C94FF"/>
<path d="M77.6965 171.57L70.8984 185.759C79.5496 186.03 101.947 186.912 118.755 186.451L124.79 172.62C118.09 172.62 95.9931 171.211 77.6965 171.57Z" fill="black"/>
<path d="M51.0248 125.661L31.4902 161.074C42.8801 161.744 73.9853 163.331 102.686 163.689C131.386 164.048 161.522 166.918 180.177 167.277C186.994 158.667 197.687 137.468 202.71 131.369C180.467 131.01 138.92 128.89 118.112 128.531C97.3045 128.172 60.7113 126.02 51.0248 125.661Z" stroke="black" stroke-width="2.52888" stroke-linecap="round" stroke-linejoin="round"/>
<path d="M48.5352 137.816C59.255 138.486 77.6883 138.938 104.121 139.294C129.587 139.637 144.943 140.729 154.347 140.729C165.827 140.729 173.838 141.741 191.498 142.021" stroke="black" stroke-width="2.52888" stroke-linecap="round" stroke-linejoin="round"/>
<path d="M39.9043 148.263C54.6133 148.98 95.3858 150.774 108.786 150.774C122.185 150.774 168.232 153.795 184.21 154.355" stroke="black" stroke-width="2.52888" stroke-linecap="round" stroke-linejoin="round"/>
<path d="M64.9336 158.7C68.9535 148.651 74.7028 137.859 78.6491 127.455" stroke="black" stroke-width="2.52888" stroke-linecap="round" stroke-linejoin="round"/>
<path d="M91.9238 128.891C88.3362 139.653 81.2404 152.001 79.2305 158.701" stroke="black" stroke-width="2.52888" stroke-linecap="round" stroke-linejoin="round"/>
<path d="M106.528 130.924C105.188 138.964 99.1585 154.373 95.8086 163.083" stroke="black" stroke-width="2.52888" stroke-linecap="round" stroke-linejoin="round"/>
<path d="M122.54 133.472C121.87 141.512 117.915 148.609 114.551 159.962" stroke="black" stroke-width="2.52888" stroke-linecap="round" stroke-linejoin="round"/>
<path d="M139.357 132.211C135.205 142.145 131.586 152.294 128.516 162.614" stroke="black" stroke-width="2.52888" stroke-linecap="round" stroke-linejoin="round"/>
<path d="M155.422 129.966C152.742 138.676 142.148 152.035 142.148 164.765" stroke="black" stroke-width="2.52888" stroke-linecap="round" stroke-linejoin="round"/>
<path d="M168.696 131.402C164.75 139.654 162.122 155.434 155.422 165.484" stroke="black" stroke-width="2.52888" stroke-linecap="round" stroke-linejoin="round"/>
<path d="M186.719 133.389C183.244 142.944 172.296 155.244 168.338 166.201" stroke="black" stroke-width="2.52888" stroke-linecap="round" stroke-linejoin="round"/>
<path d="M219.756 11.6666L225.975 8.16965L51.8975 0.741211L43.5488 5.63671C43.5488 5.63671 204.346 13.0068 219.756 11.667" fill="#2EE57C"/>
</svg>
