<svg width="574" height="647" viewBox="0 0 574 647" fill="none" xmlns="http://www.w3.org/2000/svg">
<path d="M571.103 599.417C472.433 407.115 385.008 192.033 320.157 138.043C156.122 322.101 2.25977 599.417 2.25977 599.417C192.38 654.343 381.651 662.974 571.103 599.417Z" fill="#3C94FF" stroke="black" stroke-width="4.25281" stroke-linecap="round" stroke-linejoin="round"/>
<path d="M400.486 253.892C370.434 199.6 347.485 161.192 320.155 138.043C281.612 180.561 252.185 218.862 220.166 261.994C220.166 261.994 226.062 269.564 231.512 277.857C242.717 266.94 262.06 248.593 265.686 244.395C269.895 249.031 273.771 253.94 277.286 259.087C277.286 259.087 300.268 239.626 312.812 230.402C320.811 240.638 333.838 258.388 333.838 258.388L359.214 243.695L375.164 269.582L400.486 253.892Z" fill="white" stroke="black" stroke-width="4.25281" stroke-linecap="round" stroke-linejoin="round"/>
<path d="M304.595 155.812C307.902 151.971 311.214 148.165 314.533 144.393C314.533 144.393 310.814 131.453 314.145 121.813C310.003 121.179 306.223 119.166 303.46 116.122C298.396 119.67 295.62 126.7 295.898 132.726C296.646 148.978 304.595 155.812 304.595 155.812Z" fill="black"/>
<path d="M296.048 95.1123C295.504 104.557 301.758 122.66 317.799 122.136C333.84 121.611 341.181 109.542 341.453 99.3101C341.725 89.0779 334.927 75.1727 326.499 71.2373C319.974 76.7469 313.449 82.5189 298.223 80.9447C297.186 85.6176 296.459 90.3498 296.048 95.1123Z" fill="#3C94FF" stroke="black" stroke-width="4.25281" stroke-linecap="round" stroke-linejoin="round"/>
<path d="M285.172 57.3314C285.172 65.2022 287.348 80.3972 298.222 80.9439C310.815 81.5772 317.683 79.6356 326.498 71.2366C336.485 61.7202 333.567 55.7572 332.752 49.4605C331.936 43.1638 317.254 34.7682 307.194 35.293C299.31 40.8025 285.172 57.3314 285.172 57.3314Z" fill="#FF577F" stroke="black" stroke-width="4.25281" stroke-linecap="round" stroke-linejoin="round"/>
<path d="M323.439 39.82C318.551 36.9146 312.935 35.3499 307.194 35.2944C299.31 40.8039 285.172 57.3328 285.172 57.3328C285.172 60.6839 285.53 64.026 286.24 67.3064C284.57 67.6831 282.835 67.7139 281.151 67.3966C279.468 67.0794 277.872 66.4214 276.471 65.466C270.922 62.0293 266.481 38.4631 287.89 32.6707C291.969 27.6859 307.932 16.5745 319.429 21.3892C333.839 27.4234 323.439 39.82 323.439 39.82Z" fill="black"/>
<path d="M311.879 20.2486C304.046 20.758 295.794 25.6319 291.012 29.6272C291.012 29.6272 277.038 26.1774 277.582 14.8958C278.126 3.61425 285.466 0.728253 293.079 0.99065C308.841 1.53384 311.879 20.2486 311.879 20.2486Z" fill="black"/>
<path d="M333.902 151.503C331.014 148.281 328.161 145.334 325.344 142.661C325.344 142.661 332.753 128.432 329.49 119.774C329.49 119.774 335.743 115.576 338.19 111.641C354.503 130.268 333.902 151.503 333.902 151.503Z" fill="black"/>
<path d="M263.963 118.461C263.011 95.5017 287.155 79.233 291.387 77.9609C293.256 79.6625 295.662 80.7121 298.22 80.943C297.645 83.0884 297.216 85.268 296.937 87.4678C296.937 87.4678 281.327 98.1127 277.013 113.476L263.963 118.461Z" fill="#3C94FF" stroke="black" stroke-width="4.25281" stroke-linecap="round" stroke-linejoin="round"/>
<path d="M339.122 87.1335C337.436 82.606 334.842 78.443 331.49 74.8818C346.407 64.4377 363.242 61.2849 362.086 47.0308C361.358 38.0476 349.773 41.8762 348.414 33.2183C348.072 23.5985 366.288 24.4133 372.991 33.1936C383.247 46.6291 380.611 72.2038 339.122 87.1335Z" fill="#3C94FF" stroke="black" stroke-width="4.25281" stroke-linecap="round" stroke-linejoin="round"/>
<path d="M301.783 69.5562C301.783 69.5562 308.172 73.4916 315.241 66.9326" stroke="black" stroke-width="4.25281" stroke-linecap="round" stroke-linejoin="round"/>
<path d="M299.582 61.3389C301.426 61.3389 302.92 59.8967 302.92 58.1177C302.92 56.3387 301.426 54.8965 299.582 54.8965C297.739 54.8965 296.244 56.3387 296.244 58.1177C296.244 59.8967 297.739 61.3389 299.582 61.3389Z" fill="black"/>
<path d="M263.965 118.461C267.73 125.228 273.142 127.772 276.611 125.897C281.681 123.157 277.015 113.477 277.015 113.477L263.965 118.461Z" fill="#FF577F" stroke="black" stroke-width="4.25281" stroke-linecap="round" stroke-linejoin="round"/>
<path d="M166.577 359.734C166.577 359.734 98.9196 456.091 48.168 543.545" stroke="black" stroke-width="4.25281" stroke-linecap="round" stroke-linejoin="round"/>
<path d="M42.0124 554.365L22.9141 586.262" stroke="black" stroke-width="4.25281" stroke-linecap="round" stroke-linejoin="round"/>
<path d="M304.765 174.409L266.652 221.899" stroke="black" stroke-width="4.25281" stroke-linecap="round" stroke-linejoin="round"/>
<path d="M348.414 33.2179C351.593 42.2162 332.709 52.8051 325.303 57.0929C319.186 60.6347 314.215 57.1398 317.963 52.6327C312.272 56.4033 309.636 49.8423 315.516 46.336C307.359 51.5833 305.184 46.0737 311.166 40.3017C316.78 34.8834 344.335 21.674 348.414 33.2179Z" fill="#FF577F" stroke="black" stroke-width="4.25281" stroke-linecap="round" stroke-linejoin="round"/>
</svg>
