<?xml version="1.0" encoding="UTF-8"?>
<svg xmlns="http://www.w3.org/2000/svg" width="78" height="104" viewBox="0 0 78 104" fill="none">
  <g clip-path="url(#clip0)">
    <path d="M32.146 0L17.514 13.08L52.763 50.99L15.519 88.456L31.259 101.314L77.815 51.655L32.146 0Z" fill="#FFF040"></path>
    <path d="M17.5139 13.08L1.10791 17.292L13.9669 5.542L32.1459 0L17.5139 13.08Z" fill="#FF577F"></path>
    <path d="M52.7629 50.99L17.5139 13.08L1.10791 17.292L35.9139 52.985L52.7629 50.99Z" fill="black"></path>
    <path d="M15.519 88.456L52.763 50.99L35.914 52.985L0 90.895L15.519 88.456Z" fill="#FF577F"></path>
    <path d="M31.259 101.314L15.519 88.456L0 90.895L13.967 103.753L31.259 101.314Z" fill="black"></path>
    <path d="M43.948 66.732L46.557 64.023" stroke="black" stroke-width="2" stroke-linecap="round" stroke-linejoin="round"></path>
    <path d="M23.501 87.966L40.247 70.575" stroke="black" stroke-width="2" stroke-linecap="round" stroke-linejoin="round"></path>
  </g>
  <defs>
    <clipPath id="clip0">
      <rect width="77.815" height="103.753" fill="white"></rect>
    </clipPath>
  </defs>
</svg>
