<?xml version="1.0" encoding="UTF-8"?>
<svg xmlns="http://www.w3.org/2000/svg" width="303" height="353" viewBox="0 0 303 353" fill="none">
  <g clip-path="url(#clip0)">
    <path d="M301.8 326.957C249.626 221.578 203.4 103.716 169.1 74.1299C82.362 174.992 1 326.957 1 326.957C101.535 357.056 201.621 361.785 301.8 326.957Z" fill="#3C94FF" stroke="black" stroke-width="2" stroke-linecap="round" stroke-linejoin="round"></path>
    <path d="M211.581 137.613C195.69 107.862 183.555 86.8129 169.103 74.1299C148.721 97.4299 133.16 118.418 116.229 142.054C116.229 142.054 119.347 146.202 122.229 150.746C128.154 144.764 138.382 134.71 140.299 132.409C142.525 134.95 144.575 137.64 146.434 140.461C146.434 140.461 158.586 129.796 165.22 124.742C169.449 130.351 176.338 140.077 176.338 140.077L189.757 132.026L198.191 146.211L211.581 137.613Z" fill="white" stroke="black" stroke-width="2" stroke-linecap="round" stroke-linejoin="round"></path>
    <path d="M87.8909 195.614C87.8909 195.614 52.1139 248.414 25.2759 296.34L87.8909 195.614Z" fill="#FF577F"></path>
    <path d="M87.8909 195.614C87.8909 195.614 52.1139 248.414 25.2759 296.34" stroke="black" stroke-width="2" stroke-linecap="round" stroke-linejoin="round"></path>
    <path d="M22.0211 302.269L11.9221 319.748" stroke="black" stroke-width="2" stroke-linecap="round" stroke-linejoin="round"></path>
    <path d="M160.963 94.0579L140.809 120.082" stroke="black" stroke-width="2" stroke-linecap="round" stroke-linejoin="round"></path>
    <path d="M161.325 83.5851C163.074 81.4851 164.947 79.0011 166.701 76.9341C166.701 76.9341 167.324 67.5861 169.085 62.3031C167.81 60.3631 164.963 59.5851 161.019 62.8321C156.337 73.1101 161.325 83.5851 161.325 83.5851Z" fill="black"></path>
    <path d="M175.706 81.284C174.178 79.518 172.669 77.9026 171.18 76.438C171.18 76.438 170.858 67.014 169.085 62.303C169.085 62.303 173.408 58.866 176.401 61.748C180.89 71.891 175.706 81.284 175.706 81.284Z" fill="black"></path>
    <path d="M198.182 21.6769C195.366 12.6469 183.976 13.4379 180.475 14.2079C175.486 15.3079 177.842 19.6539 181.555 20.3749C186.876 19.1279 190.106 20.2879 190.921 24.3379C192.421 31.7639 182.421 35.0379 174.239 38.8029C172.853 37.7499 173.739 38.4709 172.456 37.5209C168.051 40.0763 162.961 41.2021 157.889 40.7429C155.651 41.4429 147.725 51.2059 148.229 63.7869L154.647 62.6349C155.617 54.8759 157.529 51.7999 157.529 51.7999C157.895 55.6837 159.085 59.4447 161.02 62.8319C166.091 64.4977 171.613 64.1086 176.4 61.7479C178.016 58.8944 178.838 55.6606 178.783 52.3819C178.652 49.6716 178.374 46.9703 177.951 44.2899C198.57 37.0299 199.789 26.8319 198.182 21.6769Z" fill="#3C94FF"></path>
    <path d="M148.229 63.787C148.439 67.069 150.175 67.966 151.709 67.679C154.37 67.179 154.647 62.635 154.647 62.635L148.229 63.787Z" fill="#3B317F"></path>
    <path d="M160.8 52.9758C161.291 55.7041 162.14 58.3556 163.325 60.8618L160.8 52.9758Z" fill="white"></path>
    <path d="M160.8 52.9758C161.291 55.7041 162.14 58.3556 163.325 60.8618" stroke="black" stroke-width="2" stroke-linecap="round" stroke-linejoin="round"></path>
    <path d="M160.161 48.3909C160.161 48.3909 160.189 48.8309 160.273 49.5759L160.161 48.3909Z" fill="white"></path>
    <path d="M160.161 48.3909C160.161 48.3909 160.189 48.8309 160.273 49.5759" stroke="black" stroke-width="2" stroke-linecap="round" stroke-linejoin="round"></path>
    <path d="M150.6 29.9C150.6 34.213 151.751 42.539 157.5 42.839C164.159 43.186 167.985 42.311 172.452 37.52C175.652 34.091 175.468 29.775 174.817 26.36C174.152 22.868 167.564 17.535 162.244 17.823C158.079 20.843 150.6 29.9 150.6 29.9Z" fill="#FF577F"></path>
    <path d="M168.718 10.1999C167.48 9.55627 166.085 9.27451 164.694 9.38692C164.471 8.12192 162.782 0.275916 155.118 0.00291615C151.093 -0.141084 147.303 2.08092 147.387 6.48692C147.501 12.5869 153.504 14.6509 153.676 14.7089C153.085 15.2197 152.538 15.7793 152.041 16.3819C140.72 19.5599 143.068 32.4739 146 34.3579C146.741 34.8813 147.585 35.2417 148.475 35.4155C149.365 35.5892 150.283 35.5723 151.166 35.3659C150.79 33.5682 150.6 31.7365 150.6 29.8999C150.6 29.8999 158.076 20.8419 162.245 17.8229C164.905 17.6789 167.835 19.9089 170.495 21.4549C170.5 21.4559 176.317 14.3059 168.718 10.1999Z" fill="black"></path>
    <path d="M160.043 36.9898C162.624 36.9431 165.148 36.2163 167.359 34.8828" stroke="black" stroke-width="2" stroke-linecap="round" stroke-linejoin="round"></path>
    <path d="M158.223 32.0969C159.198 32.0969 159.988 31.3067 159.988 30.3319C159.988 29.3571 159.198 28.5669 158.223 28.5669C157.248 28.5669 156.458 29.3571 156.458 30.3319C156.458 31.3067 157.248 32.0969 158.223 32.0969Z" fill="black"></path>
    <path d="M165.902 29.737C166.877 29.737 167.667 28.9468 167.667 27.972C167.667 26.9972 166.877 26.207 165.902 26.207C164.927 26.207 164.137 26.9972 164.137 27.972C164.137 28.9468 164.927 29.737 165.902 29.737Z" fill="black"></path>
    <path d="M181.637 20.39C175.208 22.164 175.51 26.33 171.8 28.99C169.639 30.542 166.923 29.378 168.441 27.49C166.313 28.658 164.595 25.498 167.147 24.039C164.484 24.889 164.237 22.256 165.147 21.286C168.694 17.517 175.482 15.094 179.224 14.552C184.215 14.155 185.628 19.143 181.637 20.39Z" fill="#3B317F"></path>
  </g>
  <defs>
    <clipPath id="clip0">
      <rect width="302.802" height="352.337" fill="white"></rect>
    </clipPath>
  </defs>
</svg>
