<?xml version="1.0" encoding="UTF-8"?>
<svg xmlns="http://www.w3.org/2000/svg" width="200" height="432" viewBox="0 0 200 432" fill="none">
  <path d="M94.3782 256.75C94.3782 256.75 84.4279 227.26 75.3732 213.13C65.6518 197.94 63.9304 198.59 55.0747 186.43C41.2638 167.43 36.0698 138.43 36.0698 138.43L44.4777 135.21C44.4777 135.21 50.3086 164.08 62.1891 179.92C74.2488 196 92.2389 215.52 98.9155 248.07C97.2047 250.854 95.6886 253.754 94.3782 256.75V256.75Z" fill="#FFF040"></path>
  <path d="M109.154 240.48C109.154 240.48 127.721 223.55 133.552 199.48C139.383 175.41 141.114 145 141.114 139.36C145.005 139.36 150.398 139.58 150.398 139.58C150.398 139.58 150.398 175.58 142.627 202.73C135.592 227.27 118.219 244.84 114.547 247.66C113.284 245.47 109.154 240.48 109.154 240.48Z" fill="#FFF040"></path>
  <path d="M118.239 227.69C118.328 224.584 117.427 221.531 115.667 218.977C113.908 216.422 111.381 214.499 108.458 213.49C108.458 213.49 109.283 202.73 105.283 202.73C100.965 202.73 102.408 213.73 102.408 213.73C102.408 213.73 92.975 216 93.2337 228.56C93.3531 235.72 99.9303 238.11 105.542 238.11C111.154 238.11 118.239 234.63 118.239 227.69Z" fill="#3C94FF"></path>
  <path d="M89.6318 314.27L89.1044 395.81C89.1044 395.81 80.6965 410.81 80.6965 419.46C80.6965 428.11 85.4527 421.34 85.4527 421.34C85.4527 421.34 86.0298 430.6 91.2139 424.52C91.5024 429.3 98.6965 431.52 97.4029 423.65C96.1094 415.78 97.4029 408.65 97.4029 398.48V313.83L89.6318 314.27Z" fill="#3C94FF"></path>
  <path d="M112.806 313.48C112.806 313.48 113.562 387.98 114.677 398.91C115.96 411.49 116.985 422.35 120.288 426.69C121.98 428.9 126.199 431.18 126.05 424.52C129.035 427.52 131.95 426.11 130.657 420.52C134.547 422.26 138.975 422.47 134.975 416.18C129.632 407.77 122.756 404.85 121.731 394.91C120.587 383.83 120.149 312.67 120.149 312.67L112.806 313.48Z" fill="#3C94FF"></path>
  <path d="M95.025 233.31C95.025 233.31 89.632 289.53 78.3981 312.53C91.6917 322.81 120.368 322.15 129.791 312.1C122.448 292.1 114.458 238.96 114.458 234.62C103.234 242.21 95.025 233.31 95.025 233.31Z" fill="#FFF040"></path>
  <path d="M97.7314 223.78C98.4829 223.171 99.3996 222.804 100.362 222.728C101.324 222.651 102.287 222.868 103.124 223.35" stroke="black" stroke-width="2" stroke-linecap="round" stroke-linejoin="round"></path>
  <path d="M107.443 223.56C107.443 223.56 110.906 221.39 113.065 223.35" stroke="black" stroke-width="2" stroke-linecap="round" stroke-linejoin="round"></path>
  <path d="M95.224 232.7C95.224 232.7 89.2538 239.7 89.3732 247.55C89.4926 255.4 86.617 259 81.2936 263.84C75.9702 268.68 76.4279 277.84 76.4279 277.84" stroke="black" stroke-width="2" stroke-linecap="round" stroke-linejoin="round"></path>
  <path d="M98.0896 234.36C98.0896 234.36 91.7115 243.92 93.1145 251.54C94.8061 260.96 89.4031 269.54 81.3533 274.48" stroke="black" stroke-width="2" stroke-linecap="round" stroke-linejoin="round"></path>
  <path d="M101.284 236C101.284 236 100.209 241.54 97.8308 255.43C95.4527 269.32 95.6716 275.43 95.6716 278.22" stroke="black" stroke-width="2" stroke-linecap="round" stroke-linejoin="round"></path>
  <path d="M105.035 236.69C105.035 236.69 102.796 248.07 101.721 257.4C100.647 266.73 104.527 272.16 102.149 281.93" stroke="black" stroke-width="2" stroke-linecap="round" stroke-linejoin="round"></path>
  <path d="M108.159 236.57C108.159 236.57 109.96 249.57 108.229 257.62C106.03 267.86 106.07 271.29 108.229 278.67" stroke="black" stroke-width="2" stroke-linecap="round" stroke-linejoin="round"></path>
  <path d="M111.433 235C111.433 235 113.602 251.31 112.945 262.81C112.289 274.31 115.93 276.48 115.93 276.48" stroke="black" stroke-width="2" stroke-linecap="round" stroke-linejoin="round"></path>
  <path d="M114.637 233.58C114.637 233.58 120.468 239.05 119.045 253.76C118.279 261.76 120.507 268.47 122.667 271.51" stroke="black" stroke-width="2" stroke-linecap="round" stroke-linejoin="round"></path>
  <path d="M36.0698 138.47C36.0698 138.47 24.627 133.47 20.0897 131.74C15.5524 130.01 15.9902 124.58 20.5175 125.45C23.9548 126.181 27.3442 127.122 30.6668 128.27C30.6668 128.27 22.1494 116.83 20.5175 114.38C17.9305 110.47 22.03 105.91 25.7016 111.38C29.3732 116.85 34.1295 125.49 34.1295 125.49C34.1295 125.49 30.4777 111.59 29.8111 108.34C28.7265 103.13 34.1295 101.61 35.6419 107.04C37.6319 114.19 39.5225 123.75 39.5225 123.75C39.5225 123.75 43.1543 109.84 44.7066 105.75C46.4678 101.14 51.4429 102 50.1096 107.43C47.9503 116.43 44.4877 127.43 44.4877 127.43C44.4877 127.43 55.7215 121.57 57.015 125.26C58.4578 129.35 44.4877 135.26 44.4877 135.26L36.0698 138.47Z" fill="#3C94FF"></path>
  <path d="M141.144 139.34C141.144 139.34 132.488 128.5 130.129 125.02C126.895 120.24 129.91 117.2 133.373 120.89C137.134 124.89 140.925 128.71 140.925 128.71C140.925 128.71 134.298 112.25 132.965 106.57C131.672 101.14 136.637 100.06 138.149 104.57C139.94 109.98 145.065 122.81 145.065 122.81C145.065 122.81 144.846 105.01 144.846 101.97C144.846 96.54 150.458 96.11 150.249 102.84C150.04 109.57 150.249 122.15 150.249 122.15C150.249 122.15 154.338 108.95 154.776 105.23C155.423 99.8 161.741 100.02 159.751 106.96C157.761 113.9 154.577 127.8 154.577 127.8L160.408 121.94C164.288 118.03 167.094 121.94 164.08 125.41C160.547 129.47 150.468 139.52 150.468 139.52L141.144 139.34Z" fill="#3C94FF"></path>
  <path d="M130.368 42.4L183.065 43.55L182.488 37.91L129.791 37.04L130.368 42.4Z" fill="#FF577F"></path>
  <path d="M126.627 36.9899L185.652 37.9599V30.9599L125.761 30.6699L126.627 36.9899Z" fill="#3C94FF"></path>
  <path d="M131.383 30.7001L180.04 30.9401L179.612 24.8901L131.234 24.6001L131.383 30.7001Z" fill="#FFF040"></path>
  <path d="M128.07 24.5799L182.776 24.9099L182.199 18.5199L127.492 17.9399L128.07 24.5799Z" fill="#FF577F"></path>
  <path d="M124.607 17.9101L185.085 18.5501L184.786 13.3101L124.328 13.6001L124.607 17.9101Z" fill="#FFF040"></path>
  <path d="M130.657 13.5699L178.458 13.3399L179.035 8.67993L130.08 8.96993L130.657 13.5699Z" fill="#3C94FF"></path>
  <path d="M128.935 8.98005L180.179 8.68005L180.756 4.05005L129.502 4.34005L128.935 8.98005Z" fill="#FF577F"></path>
  <path d="M19.224 38.2001L18.9355 43.7001H61.5524L60.9753 37.3301L19.224 38.2001Z" fill="#FF577F"></path>
  <path d="M11.1643 38.37L69.0349 37.16L68.4678 30.96L11.1643 33.28V38.37Z" fill="#FFF040"></path>
  <path d="M7.13438 33.4399L72.4975 30.7999L72.7861 25.1799L6.84583 27.7799L7.13438 33.4399Z" fill="#FF577F"></path>
  <path d="M10.0101 27.66L69.6121 25.3L69.9006 19.97L10.0101 21.7V27.66Z" fill="#3C94FF"></path>
  <path d="M7.42296 21.78L72.4975 19.89L72.209 15.05L7.1344 17.36L7.42296 21.78Z" fill="#FFF040"></path>
  <path d="M11.1942 17.2201L68.1394 15.1901L67.8906 9.84009L11.4529 11.5701L11.1942 17.2201Z" fill="#FF577F"></path>
  <path d="M7.71161 11.6899L71.632 9.71992L71.3434 4.91992L8.00017 6.65992L7.71161 11.6899Z" fill="#FFF040"></path>
  <path d="M19.8707 6.33L59.4627 5.25L59.5324 0L20.3782 0.58L19.8707 6.33Z" fill="#3C94FF"></path>
  <path d="M1.69165 430.56L198.896 429.45" stroke="black" stroke-width="2" stroke-linecap="round" stroke-linejoin="round"></path>
  <path d="M115.502 316.4C116.05 316.29 116.607 316.18 117.174 316.05" stroke="black" stroke-width="2" stroke-linecap="round" stroke-linejoin="round"></path>
  <path d="M81.7612 311.51C81.7612 311.51 92.2786 319.41 111.323 317.06" stroke="black" stroke-width="2" stroke-linecap="round" stroke-linejoin="round"></path>
  <path d="M63.6917 192.64C67.5822 197.29 74.1494 205.37 76.8558 210.08" stroke="black" stroke-width="2" stroke-linecap="round" stroke-linejoin="round"></path>
  <path d="M60.6469 189.05L61.4528 189.99" stroke="black" stroke-width="2" stroke-linecap="round" stroke-linejoin="round"></path>
  <path d="M91.8508 356.32C91.7414 365.65 91.5225 385.32 91.5822 390.49" stroke="black" stroke-width="2" stroke-linecap="round" stroke-linejoin="round"></path>
  <path d="M91.9104 351.33C91.9104 351.33 91.9104 351.78 91.9104 352.57" stroke="black" stroke-width="2" stroke-linecap="round" stroke-linejoin="round"></path>
  <path d="M115.851 356.32C116.02 364.32 116.358 379.07 116.647 387.74" stroke="black" stroke-width="2" stroke-linecap="round" stroke-linejoin="round"></path>
  <path d="M115.741 350.83C115.741 350.83 115.741 351.4 115.741 352.41" stroke="black" stroke-width="2" stroke-linecap="round" stroke-linejoin="round"></path>
  <path d="M10.0101 43.4099L76.5275 43.6999" stroke="black" stroke-width="2" stroke-linecap="round" stroke-linejoin="round"></path>
  <path d="M123.751 42.25L189.682 43.7" stroke="black" stroke-width="2" stroke-linecap="round" stroke-linejoin="round"></path>
</svg>
