<?xml version="1.0" encoding="UTF-8"?>
<svg xmlns="http://www.w3.org/2000/svg" width="196" height="178" viewBox="0 0 196 178" fill="none">
  <g clip-path="url(#clip0)">
    <path d="M17.7601 0.810714C48.0111 0.610714 134.429 -0.829286 177.309 1.24971C178.688 1.31671 179.462 2.44971 180.109 3.67171C181.609 6.52171 183.588 11.3777 183.588 11.3777C172.661 10.6237 12.9031 11.3777 12.9031 11.3777C12.6791 9.57771 13.8881 6.14971 14.7931 3.72671C15.3551 2.21271 16.1431 0.821714 17.7601 0.810714Z" fill="#3C94FF"></path>
    <path d="M183.584 11.3778C172.657 10.6238 12.8992 11.3778 12.8992 11.3778L14.4062 111.227C26.0872 111.603 63.3892 110.473 97.6772 109.343C131.965 108.213 176.802 111.227 184.338 111.227V53.5778C184.338 43.0278 183.584 11.3778 183.584 11.3778Z" fill="#3B317F"></path>
    <path d="M89.2141 22.5287C91.0024 22.5287 92.4521 21.079 92.4521 19.2907C92.4521 17.5024 91.0024 16.0527 89.2141 16.0527C87.4258 16.0527 85.9761 17.5024 85.9761 19.2907C85.9761 21.079 87.4258 22.5287 89.2141 22.5287Z" fill="#3C94FF" stroke="black" stroke-width="2" stroke-linecap="round" stroke-linejoin="round"></path>
    <path d="M99.0272 21.9396C100.815 21.9396 102.265 20.4899 102.265 18.7016C102.265 16.9133 100.815 15.4636 99.0272 15.4636C97.2389 15.4636 95.7892 16.9133 95.7892 18.7016C95.7892 20.4899 97.2389 21.9396 99.0272 21.9396Z" fill="#3C94FF" stroke="black" stroke-width="2" stroke-linecap="round" stroke-linejoin="round"></path>
    <path d="M98.1432 34.6967C99.9314 34.6967 101.381 33.247 101.381 31.4587C101.381 29.6704 99.9314 28.2207 98.1432 28.2207C96.3549 28.2207 94.9052 29.6704 94.9052 31.4587C94.9052 33.247 96.3549 34.6967 98.1432 34.6967Z" fill="#2EE57C" stroke="black" stroke-width="2" stroke-linecap="round" stroke-linejoin="round"></path>
    <path d="M91.4712 70.6098C93.2595 70.6098 94.7092 69.1601 94.7092 67.3718C94.7092 65.5835 93.2595 64.1338 91.4712 64.1338C89.6829 64.1338 88.2332 65.5835 88.2332 67.3718C88.2332 69.1601 89.6829 70.6098 91.4712 70.6098Z" fill="#3C94FF" stroke="black" stroke-width="2" stroke-linecap="round" stroke-linejoin="round"></path>
    <path d="M102.853 71.5917C104.641 71.5917 106.091 70.142 106.091 68.3537C106.091 66.5654 104.641 65.1157 102.853 65.1157C101.065 65.1157 99.6151 66.5654 99.6151 68.3537C99.6151 70.142 101.065 71.5917 102.853 71.5917Z" fill="#3C94FF" stroke="black" stroke-width="2" stroke-linecap="round" stroke-linejoin="round"></path>
    <path d="M104.227 81.4037C106.015 81.4037 107.465 79.954 107.465 78.1657C107.465 76.3774 106.015 74.9277 104.227 74.9277C102.439 74.9277 100.989 76.3774 100.989 78.1657C100.989 79.954 102.439 81.4037 104.227 81.4037Z" fill="#3C94FF" stroke="black" stroke-width="2" stroke-linecap="round" stroke-linejoin="round"></path>
    <path d="M114.923 75.6147C116.711 75.6147 118.161 74.165 118.161 72.3767C118.161 70.5884 116.711 69.1387 114.923 69.1387C113.135 69.1387 111.685 70.5884 111.685 72.3767C111.685 74.165 113.135 75.6147 114.923 75.6147Z" fill="#3C94FF" stroke="black" stroke-width="2" stroke-linecap="round" stroke-linejoin="round"></path>
    <path d="M112.96 87.9787C114.748 87.9787 116.198 86.529 116.198 84.7407C116.198 82.9524 114.748 81.5027 112.96 81.5027C111.172 81.5027 109.722 82.9524 109.722 84.7407C109.722 86.529 111.172 87.9787 112.96 87.9787Z" fill="#3C94FF" stroke="black" stroke-width="2" stroke-linecap="round" stroke-linejoin="round"></path>
    <path d="M103.877 98.9628C105.665 98.9628 107.115 97.5131 107.115 95.7248C107.115 93.9365 105.665 92.4868 103.877 92.4868C102.089 92.4868 100.639 93.9365 100.639 95.7248C100.639 97.5131 102.089 98.9628 103.877 98.9628Z" fill="black" stroke="black" stroke-width="2" stroke-linecap="round" stroke-linejoin="round"></path>
    <path d="M115.708 100.931C117.496 100.931 118.946 99.4809 118.946 97.6926C118.946 95.9043 117.496 94.4546 115.708 94.4546C113.92 94.4546 112.47 95.9043 112.47 97.6926C112.47 99.4809 113.92 100.931 115.708 100.931Z" fill="#2EE57C" stroke="black" stroke-width="2" stroke-linecap="round" stroke-linejoin="round"></path>
    <path d="M91.3731 81.8947C93.1614 81.8947 94.6111 80.445 94.6111 78.6567C94.6111 76.8684 93.1614 75.4187 91.3731 75.4187C89.5848 75.4187 88.1351 76.8684 88.1351 78.6567C88.1351 80.445 89.5848 81.8947 91.3731 81.8947Z" fill="#2EE57C" stroke="black" stroke-width="2" stroke-linecap="round" stroke-linejoin="round"></path>
    <path d="M90.9802 98.5756C92.7685 98.5756 94.2182 97.1259 94.2182 95.3376C94.2182 93.5493 92.7685 92.0996 90.9802 92.0996C89.1919 92.0996 87.7422 93.5493 87.7422 95.3376C87.7422 97.1259 89.1919 98.5756 90.9802 98.5756Z" fill="#2EE57C" stroke="black" stroke-width="2" stroke-linecap="round" stroke-linejoin="round"></path>
    <path d="M87.5461 34.6967C89.3344 34.6967 90.7841 33.247 90.7841 31.4587C90.7841 29.6704 89.3344 28.2207 87.5461 28.2207C85.7578 28.2207 84.3081 29.6704 84.3081 31.4587C84.3081 33.247 85.7578 34.6967 87.5461 34.6967Z" fill="#2EE57C" stroke="black" stroke-width="2" stroke-linecap="round" stroke-linejoin="round"></path>
    <path d="M49.8662 25.8647C51.6545 25.8647 53.1042 24.415 53.1042 22.6267C53.1042 20.8384 51.6545 19.3887 49.8662 19.3887C48.0779 19.3887 46.6282 20.8384 46.6282 22.6267C46.6282 24.415 48.0779 25.8647 49.8662 25.8647Z" fill="#2EE57C" stroke="black" stroke-width="2" stroke-linecap="round" stroke-linejoin="round"></path>
    <path d="M59.8751 21.5478C61.6634 21.5478 63.1131 20.0981 63.1131 18.3098C63.1131 16.5215 61.6634 15.0718 59.8751 15.0718C58.0868 15.0718 56.6371 16.5215 56.6371 18.3098C56.6371 20.0981 58.0868 21.5478 59.8751 21.5478Z" fill="#2EE57C" stroke="black" stroke-width="2" stroke-linecap="round" stroke-linejoin="round"></path>
    <path d="M70.6682 24.8837C72.4565 24.8837 73.9062 23.434 73.9062 21.6457C73.9062 19.8574 72.4565 18.4077 70.6682 18.4077C68.8799 18.4077 67.4302 19.8574 67.4302 21.6457C67.4302 23.434 68.8799 24.8837 70.6682 24.8837Z" fill="#2EE57C" stroke="black" stroke-width="2" stroke-linecap="round" stroke-linejoin="round"></path>
    <path d="M70.0802 35.0888C71.8685 35.0888 73.3182 33.6391 73.3182 31.8508C73.3182 30.0625 71.8685 28.6128 70.0802 28.6128C68.2919 28.6128 66.8422 30.0625 66.8422 31.8508C66.8422 33.6391 68.2919 35.0888 70.0802 35.0888Z" fill="#2EE57C" stroke="black" stroke-width="2" stroke-linecap="round" stroke-linejoin="round"></path>
    <path d="M59.8751 32.7338C61.6634 32.7338 63.1131 31.2841 63.1131 29.4958C63.1131 27.7075 61.6634 26.2578 59.8751 26.2578C58.0868 26.2578 56.6371 27.7075 56.6371 29.4958C56.6371 31.2841 58.0868 32.7338 59.8751 32.7338Z" fill="black" stroke="black" stroke-width="2" stroke-linecap="round" stroke-linejoin="round"></path>
    <path d="M50.0621 36.2668C51.8504 36.2668 53.3001 34.8171 53.3001 33.0288C53.3001 31.2405 51.8504 29.7908 50.0621 29.7908C48.2738 29.7908 46.8241 31.2405 46.8241 33.0288C46.8241 34.8171 48.2738 36.2668 50.0621 36.2668Z" fill="black" stroke="black" stroke-width="2" stroke-linecap="round" stroke-linejoin="round"></path>
    <path d="M48.8851 56.8727C50.6734 56.8727 52.1231 55.423 52.1231 53.6347C52.1231 51.8464 50.6734 50.3967 48.8851 50.3967C47.0968 50.3967 45.6471 51.8464 45.6471 53.6347C45.6471 55.423 47.0968 56.8727 48.8851 56.8727Z" fill="#2EE57C" stroke="black" stroke-width="2" stroke-linecap="round" stroke-linejoin="round"></path>
    <path d="M109.624 22.9218C111.412 22.9218 112.862 21.4721 112.862 19.6838C112.862 17.8955 111.412 16.4458 109.624 16.4458C107.836 16.4458 106.386 17.8955 106.386 19.6838C106.386 21.4721 107.836 22.9218 109.624 22.9218Z" fill="#3C94FF" stroke="black" stroke-width="2" stroke-linecap="round" stroke-linejoin="round"></path>
    <path d="M142.398 23.3136C144.186 23.3136 145.636 21.8639 145.636 20.0756C145.636 18.2873 144.186 16.8376 142.398 16.8376C140.61 16.8376 139.16 18.2873 139.16 20.0756C139.16 21.8639 140.61 23.3136 142.398 23.3136Z" fill="#3C94FF" stroke="black" stroke-width="2" stroke-linecap="round" stroke-linejoin="round"></path>
    <path d="M155.154 22.2348C156.942 22.2348 158.392 20.7851 158.392 18.9968C158.392 17.2085 156.942 15.7588 155.154 15.7588C153.366 15.7588 151.916 17.2085 151.916 18.9968C151.916 20.7851 153.366 22.2348 155.154 22.2348Z" fill="#3C94FF" stroke="black" stroke-width="2" stroke-linecap="round" stroke-linejoin="round"></path>
    <path d="M168.499 23.2157C170.287 23.2157 171.737 21.766 171.737 19.9777C171.737 18.1894 170.287 16.7397 168.499 16.7397C166.711 16.7397 165.261 18.1894 165.261 19.9777C165.261 21.766 166.711 23.2157 168.499 23.2157Z" fill="#3C94FF" stroke="black" stroke-width="2" stroke-linecap="round" stroke-linejoin="round"></path>
    <path d="M156.332 37.7387C158.12 37.7387 159.57 36.289 159.57 34.5007C159.57 32.7124 158.12 31.2627 156.332 31.2627C154.544 31.2627 153.094 32.7124 153.094 34.5007C153.094 36.289 154.544 37.7387 156.332 37.7387Z" fill="#3C94FF" stroke="black" stroke-width="2" stroke-linecap="round" stroke-linejoin="round"></path>
    <path d="M157.509 73.8488C159.297 73.8488 160.747 72.3991 160.747 70.6108C160.747 68.8225 159.297 67.3728 157.509 67.3728C155.721 67.3728 154.271 68.8225 154.271 70.6108C154.271 72.3991 155.721 73.8488 157.509 73.8488Z" fill="#2EE57C" stroke="black" stroke-width="2" stroke-linecap="round" stroke-linejoin="round"></path>
    <path d="M167.322 72.0817C169.11 72.0817 170.56 70.632 170.56 68.8437C170.56 67.0554 169.11 65.6057 167.322 65.6057C165.534 65.6057 164.084 67.0554 164.084 68.8437C164.084 70.632 165.534 72.0817 167.322 72.0817Z" fill="#2EE57C" stroke="black" stroke-width="2" stroke-linecap="round" stroke-linejoin="round"></path>
    <path d="M173.557 84.5798C175.345 84.5798 176.795 83.1301 176.795 81.3418C176.795 79.5535 175.345 78.1038 173.557 78.1038C171.769 78.1038 170.319 79.5535 170.319 81.3418C170.319 83.1301 171.769 84.5798 173.557 84.5798Z" fill="#2EE57C" stroke="black" stroke-width="2" stroke-linecap="round" stroke-linejoin="round"></path>
    <path d="M160.087 85.2887C161.875 85.2887 163.325 83.839 163.325 82.0507C163.325 80.2624 161.875 78.8127 160.087 78.8127C158.299 78.8127 156.849 80.2624 156.849 82.0507C156.849 83.839 158.299 85.2887 160.087 85.2887Z" fill="black" stroke="black" stroke-width="2" stroke-linecap="round" stroke-linejoin="round"></path>
    <path d="M150.871 84.8168C152.659 84.8168 154.109 83.3671 154.109 81.5788C154.109 79.7905 152.659 78.3408 150.871 78.3408C149.083 78.3408 147.633 79.7905 147.633 81.5788C147.633 83.3671 149.083 84.8168 150.871 84.8168Z" fill="#2EE57C" stroke="black" stroke-width="2" stroke-linecap="round" stroke-linejoin="round"></path>
    <path d="M141.669 85.8676C143.457 85.8676 144.907 84.4179 144.907 82.6296C144.907 80.8413 143.457 79.3916 141.669 79.3916C139.881 79.3916 138.431 80.8413 138.431 82.6296C138.431 84.4179 139.881 85.8676 141.669 85.8676Z" fill="black" stroke="black" stroke-width="2" stroke-linecap="round" stroke-linejoin="round"></path>
    <path d="M142.987 34.9906C144.775 34.9906 146.225 33.5409 146.225 31.7526C146.225 29.9643 144.775 28.5146 142.987 28.5146C141.199 28.5146 139.749 29.9643 139.749 31.7526C139.749 33.5409 141.199 34.9906 142.987 34.9906Z" fill="black" stroke="black" stroke-width="2" stroke-linecap="round" stroke-linejoin="round"></path>
    <path d="M109.035 34.7946C110.823 34.7946 112.273 33.3449 112.273 31.5566C112.273 29.7683 110.823 28.3186 109.035 28.3186C107.247 28.3186 105.797 29.7683 105.797 31.5566C105.797 33.3449 107.247 34.7946 109.035 34.7946Z" fill="black" stroke="black" stroke-width="2" stroke-linecap="round" stroke-linejoin="round"></path>
    <path d="M130.055 15.7378C130.055 29.9258 130.941 47.4378 130.828 60.7648C130.714 74.1648 130.77 95.8138 130.77 106.122" stroke="black" stroke-width="2" stroke-linecap="round" stroke-linejoin="round"></path>
    <path d="M81.9412 60.1817C86.5332 59.5257 119.677 62.0747 130.828 60.7627C141.979 59.4507 173.121 59.1267 181.649 59.5627" stroke="black" stroke-width="2" stroke-linecap="round" stroke-linejoin="round"></path>
    <path d="M80.1771 15.0708C80.1771 23.2708 79.8871 33.6498 80.3241 42.6148C80.7611 51.5798 81.5621 59.4148 81.1991 76.2868C80.8931 90.4868 80.6741 103.069 80.8931 106.787" stroke="black" stroke-width="2" stroke-linecap="round" stroke-linejoin="round"></path>
    <path d="M16.7081 44.9377C22.3791 44.9377 38.0081 45.3787 51.1311 45.0037C66.6501 44.5607 80.5421 44.0938 80.5421 44.0938" stroke="black" stroke-width="2" stroke-linecap="round" stroke-linejoin="round"></path>
    <path d="M41.6491 107.451C42.0271 101.213 41.2341 88.2817 40.9341 80.9137C40.4901 70.0507 40.4681 52.5947 39.5231 45.2227" stroke="black" stroke-width="2" stroke-linecap="round" stroke-linejoin="round"></path>
    <path d="M80.9201 80.7607C76.0051 80.7607 49.3521 82.0837 41.9801 80.7607" stroke="black" stroke-width="2" stroke-linecap="round" stroke-linejoin="round"></path>
    <path d="M109.133 31.5566C114.233 32.5376 113.647 42.7426 113.647 48.2376C113.647 53.7326 113.421 58.1056 116.002 62.5636C118.161 66.2926 120.648 66.0856 123.067 71.3956C125.117 75.8956 123.1 85.2956 129.936 87.0956C137.08 88.9766 141.711 82.7776 141.711 82.7776" stroke="black" stroke-width="2" stroke-linecap="round" stroke-linejoin="round"></path>
    <path d="M143.085 31.9487C141.585 45.4427 154.885 40.5657 152.885 48.5487C150.668 57.4157 141.8 49.6567 140.692 60.0767C140.01 66.4847 149.56 68.7227 157.505 70.6127" stroke="black" stroke-width="2" stroke-linecap="round" stroke-linejoin="round"></path>
    <path d="M142.67 86.0238C143.064 88.2578 143.196 99.0378 152.135 98.3808C161.074 97.7238 156.472 89.6468 160.087 82.0508" stroke="black" stroke-width="2" stroke-linecap="round" stroke-linejoin="round"></path>
    <path d="M48.8851 53.6377C58.9411 46.2657 67.5851 50.5887 74.2381 57.9047C82.2851 66.7567 66.8841 77.5277 71.9101 84.5047C77.8961 92.8187 89.7101 79.4417 103.835 95.5337" stroke="black" stroke-width="2" stroke-linecap="round" stroke-linejoin="round"></path>
    <path d="M184.338 111.227C176.802 111.227 131.964 108.212 97.6772 109.343C63.3902 110.474 26.0872 111.603 14.4062 111.227C8.86445 128.786 4.33566 146.648 0.842163 164.727C16.2902 164.727 78.4602 164.35 94.2862 164.35C110.112 164.35 179.746 162.095 195.948 163.979C193.687 149.665 189.63 128.738 184.338 111.227Z" fill="#3C94FF"></path>
    <path d="M195.948 163.983C179.748 162.099 110.111 164.354 94.2861 164.354C78.4612 164.354 16.2861 164.731 0.842149 164.731L0.777149 173.251C0.772256 173.779 0.87215 174.303 1.07105 174.792C1.26995 175.281 1.56391 175.726 1.93591 176.101C2.30791 176.476 2.75057 176.773 3.23827 176.976C3.72597 177.178 4.24902 177.282 4.77715 177.282C22.6621 177.265 74.5931 177.165 93.9121 177.165C113.899 177.165 165.602 175.959 191.817 176.793C192.354 176.811 192.888 176.72 193.389 176.527C193.89 176.334 194.347 176.043 194.733 175.669C195.118 175.296 195.425 174.849 195.634 174.355C195.844 173.861 195.951 173.329 195.951 172.793L195.948 163.983Z" fill="#3B317F"></path>
    <path d="M18.5511 121.023C18.5511 121.023 61.1281 121.023 84.4891 120.27C107.85 119.517 168.136 120.646 176.049 120.646C176.802 127.052 184.338 153.046 185.468 156.064C174.168 156.064 121.037 157.195 97.6771 157.948C74.3171 158.701 18.5511 156.818 12.5221 157.572C13.6531 149.282 18.5511 121.023 18.5511 121.023Z" fill="white"></path>
    <path d="M162.934 120.498L156.405 120.412L160.583 141.126L167.668 141.335L162.934 120.498Z" fill="black"></path>
    <path d="M143.619 120.256C141.571 120.233 140.719 120.217 138.604 120.195L143.223 144.417L147.872 144.252L143.619 120.256Z" fill="black"></path>
    <path d="M134.493 120.16C132.937 120.145 131.369 120.131 129.793 120.118L132.449 145.294H138.7L134.493 120.16Z" fill="black"></path>
    <path d="M120.138 120.049C118.298 120.038 116.469 120.03 114.661 120.024L115.991 145.085L123.076 145.294L120.138 120.049Z" fill="black"></path>
    <path d="M109.441 120.011C107.396 120.011 105.391 120.011 103.441 120.011L104.114 145.497L110.782 145.289L109.441 120.011Z" fill="black"></path>
    <path d="M94.8311 120.069C93.0941 120.087 91.4371 120.11 89.8751 120.138L90.1531 143.418L96.1861 143.033L94.8311 120.069Z" fill="black"></path>
    <path d="M71.8771 120.58C70.2511 120.611 68.5931 120.639 66.9161 120.666L63.8971 144.46L70.3571 144.044L71.8771 120.58Z" fill="black"></path>
    <path d="M61.7002 120.738C60.0502 120.76 58.3942 120.78 56.7422 120.799L53.4772 145.919H59.1032L61.7002 120.738Z" fill="black"></path>
    <path d="M45.5181 120.909C43.2711 120.926 42.2771 120.924 40.1881 120.936L35.1421 147.794C37.9421 147.755 41.9311 147.533 41.9311 147.533L45.5181 120.909Z" fill="black"></path>
    <path d="M34.3012 120.978C31.5962 120.991 29.1302 121.001 26.9932 121.007C26.9932 121.007 21.3932 145.507 21.1812 148.419C24.0982 148.628 28.4742 148.836 28.4742 148.836C29.0992 143.627 34.3012 120.978 34.3012 120.978Z" fill="black"></path>
    <path d="M20.3662 156.002L22.8602 146.025" stroke="black" stroke-width="2" stroke-linecap="round" stroke-linejoin="round"></path>
    <path d="M34.4991 155.503L36.9931 144.196" stroke="black" stroke-width="2" stroke-linecap="round" stroke-linejoin="round"></path>
    <path d="M50.2452 124.144L45.8062 154.838" stroke="black" stroke-width="2" stroke-linecap="round" stroke-linejoin="round"></path>
    <path d="M57.2782 154.671L58.4422 141.536" stroke="black" stroke-width="2" stroke-linecap="round" stroke-linejoin="round"></path>
    <path d="M68.5852 155.503L69.5822 140.538" stroke="black" stroke-width="2" stroke-linecap="round" stroke-linejoin="round"></path>
    <path d="M82.3851 155.669L82.8841 123.08" stroke="black" stroke-width="2" stroke-linecap="round" stroke-linejoin="round"></path>
    <path d="M96.0191 156.334L95.0221 141.037" stroke="black" stroke-width="2" stroke-linecap="round" stroke-linejoin="round"></path>
    <path d="M110.485 155.835L109.487 140.372" stroke="black" stroke-width="2" stroke-linecap="round" stroke-linejoin="round"></path>
    <path d="M123.288 155.503L121.791 143.199" stroke="black" stroke-width="2" stroke-linecap="round" stroke-linejoin="round"></path>
    <path d="M139.582 155.337L137.088 142.7" stroke="black" stroke-width="2" stroke-linecap="round" stroke-linejoin="round"></path>
    <path d="M157.041 154.173L150.224 121.75" stroke="black" stroke-width="2" stroke-linecap="round" stroke-linejoin="round"></path>
    <path d="M169.677 153.341L166.019 138.876" stroke="black" stroke-width="2" stroke-linecap="round" stroke-linejoin="round"></path>
    <path d="M148.727 153.84L146.233 141.204" stroke="black" stroke-width="2" stroke-linecap="round" stroke-linejoin="round"></path>
  </g>
  <defs>
    <clipPath id="clip0">
      <rect width="195.171" height="177.144" fill="white" transform="translate(0.7771 0.137695)"></rect>
    </clipPath>
  </defs>
</svg>
