<svg width="210" height="229" viewBox="0 0 210 229" fill="none" xmlns="http://www.w3.org/2000/svg">
<path d="M47.0302 49.3632C75.8914 55.1245 107.646 72.041 107.646 72.041C112.864 64.722 133.37 52.1437 153.283 43.6917C153.835 40.2746 153.675 36.7804 152.814 33.4279C148.004 27.6249 139.575 18.8521 139.575 18.8521L141.545 39.864C138.7 33.5167 130.164 16.8822 127.1 13.3802C128.628 23.4587 129.578 33.6165 129.945 43.8037C126.224 30.6713 117.469 6.59509 117.469 6.59509C117.688 14.2557 116.813 35.7054 115.499 44.8981C112.873 30.2335 109.371 13.3802 108.714 7.47059C106.525 14.2557 99.3026 41.615 99.0837 49.9322C99.3026 36.7997 102.148 21.9163 102.805 8.12719C99.5215 12.7236 81.7927 36.1432 80.6983 52.121C82.0116 35.0488 88.7967 19.5087 96.4573 7.25171C89.4533 14.4746 70.4113 27.607 63.4073 45.9925C66.4715 37.0187 85.2947 10.9726 85.2947 10.9726C77.1963 16.0067 57.4976 35.4865 51.8069 45.5547C54.6523 37.4564 64.9393 23.8862 64.9393 23.8862C61.7971 25.9811 54.256 32.3728 49.7992 36.2067C47.5772 40.2151 46.6124 44.7992 47.0302 49.3632Z" fill="#3C94FF"/>
<path d="M102.97 75.4289C102.97 75.4289 100.702 201.738 102.393 218.656C47.5296 239.557 20.9969 216.619 7.49868 204.862C7.49868 203.991 0.967285 56.8174 0.967285 56.8174C0.967285 56.8174 26.0724 76.9713 48.4671 78.251C70.8617 79.5307 102.97 75.4289 102.97 75.4289Z" fill="#FF577F"/>
<path d="M111.812 75.6917L110.212 218.697C110.212 218.697 132.607 231.174 158.521 227.335C184.434 223.496 209.337 206.324 209.337 206.324C209.337 206.324 205.549 104.805 207.149 51.0576C196.911 58.7358 160.12 84.3296 111.812 75.6917Z" fill="#FF577F"/>
<path d="M110.212 218.697L111.812 75.6924C110.432 76.3844 108.901 76.7226 107.358 76.6767C105.815 76.6308 104.307 76.2022 102.97 75.4294C102.97 75.4294 100.702 201.739 102.393 218.657C103.246 220.41 107.694 220.724 110.212 218.697Z" fill="#FF577F"/>
<path d="M102.746 88.8286C102.362 112.832 101.633 163.549 101.788 194.567" stroke="black" stroke-width="2" stroke-linecap="round" stroke-linejoin="round"/>
<path d="M93.0474 59.4557C94.4077 59.4557 95.5104 58.353 95.5104 56.9927C95.5104 55.6325 94.4077 54.5298 93.0474 54.5298C91.6872 54.5298 90.5845 55.6325 90.5845 56.9927C90.5845 58.353 91.6872 59.4557 93.0474 59.4557Z" fill="black"/>
<path d="M117.586 58.4018C118.946 58.4018 120.049 57.2991 120.049 55.9389C120.049 54.5786 118.946 53.476 117.586 53.476C116.226 53.476 115.123 54.5786 115.123 55.9389C115.123 57.2991 116.226 58.4018 117.586 58.4018Z" fill="black"/>
<path d="M187.728 35.0854C161.592 45.3788 142.582 49.4523 118.374 70.1806C141.61 54.5713 165.624 48.0933 187.742 45.815L187.728 35.0854Z" fill="black"/>
<path d="M199.071 52.3351C182.91 55.0459 146.231 61.9967 123.805 72.4785C144.619 58.9573 178.328 49.7084 198.746 44.9976L199.071 52.3351Z" fill="black"/>
<path d="M27.6163 47.5153C62.7854 56.1801 94.6926 71.6793 94.6926 71.6793C87.8243 71.4773 57.3697 59.4428 27.4854 55.625L27.6163 47.5153Z" fill="black"/>
<path d="M11.312 54.4775C36.5559 60.7709 66.8302 67.8942 83.4637 73.3517C83.4637 73.3517 36.6713 68.9344 10.8777 60.7345L11.312 54.4775Z" fill="black"/>
<path d="M46.335 39.2075C46.335 39.2075 72.1621 1.77998 104.556 1.5611C136.949 1.34222 151.832 21.4787 154.459 35.4866C150.3 30.0148 139.575 18.8522 139.575 18.8522L141.545 39.8641C138.7 33.5167 130.164 16.8823 127.1 13.3803C128.628 23.4588 129.578 33.6166 129.945 43.8038C126.224 30.6713 117.469 6.59517 117.469 6.59517C117.688 14.2558 116.812 35.7054 115.499 44.8982C112.873 30.2336 109.371 13.3803 108.714 7.47067C106.525 14.2558 99.3025 41.615 99.0837 49.9323C99.3025 36.7998 102.148 21.9164 102.805 8.12727C99.5214 12.7237 81.7926 36.1432 80.6982 52.1211C82.0115 35.0489 88.7966 19.5088 96.4572 7.25179C89.4532 14.4746 70.4112 27.6071 63.4072 45.9925C66.4714 37.0187 85.2946 10.9727 85.2946 10.9727C77.1962 16.0068 57.4976 35.4866 51.8068 45.5548C54.6522 37.4565 64.9392 23.8863 64.9392 23.8863C60.3429 26.9505 46.335 39.2075 46.335 39.2075Z" fill="black"/>
<path d="M154.459 35.4868C152.601 25.5789 144.612 12.6055 128.632 5.93686C128.632 5.93686 132.153 0.483554 137.605 0.0290736C148.111 -0.846526 154.459 22.1353 154.459 35.4868Z" fill="black"/>
<path d="M104.774 59.7816C104.774 59.7816 108.985 65.915 107.646 72.041" stroke="black" stroke-width="2" stroke-linecap="round" stroke-linejoin="round"/>
<path d="M111.812 75.6917C160.12 84.3296 196.911 58.7358 207.149 51.0576C207.149 51.0576 153.219 58.7311 123.805 72.4785C144.619 58.9574 178.328 49.7085 198.746 44.9976C173.737 46.1699 145.524 51.9418 118.374 70.1806C142.582 49.4524 161.592 45.3788 187.728 35.0855C167.702 32.9318 116.36 59.8194 107.646 72.0411C109.276 72.9518 110.695 74.1957 111.812 75.6917Z" fill="#FFF040"/>
<path d="M0.967285 56.8174C0.967285 56.8174 26.0724 76.9713 48.4671 78.251C70.8617 79.5307 102.97 75.4289 102.97 75.4289L107.646 72.0409C107.646 72.0409 59.2176 46.2409 27.6163 47.5152C62.7855 56.18 94.6926 71.6792 94.6926 71.6792C86.5696 71.4403 45.4557 54.6509 11.312 54.4774C36.5559 60.7708 66.8302 67.8941 83.4637 73.3516C83.4637 73.3516 21.6813 67.5193 0.967285 56.8174Z" fill="#FFF040"/>
<path d="M7.80591 102.781L11.1265 180.666" stroke="black" stroke-width="2" stroke-linecap="round" stroke-linejoin="round"/>
<path d="M11.4285 188.213L12.0322 201.495" stroke="black" stroke-width="2" stroke-linecap="round" stroke-linejoin="round"/>
<path d="M116.65 110.725L115.312 195.78" stroke="black" stroke-width="2" stroke-linecap="round" stroke-linejoin="round"/>
<path d="M115.045 202.199V210.758" stroke="black" stroke-width="2" stroke-linecap="round" stroke-linejoin="round"/>
<path d="M26.8696 211.025C26.8696 211.025 42.5611 222.794 66.4549 221.011" stroke="black" stroke-width="2" stroke-linecap="round" stroke-linejoin="round"/>
<path d="M123.515 217.088C123.515 217.088 138.85 225.647 161.674 221.367" stroke="black" stroke-width="2" stroke-linecap="round" stroke-linejoin="round"/>
<path d="M111.812 75.6923C110.432 76.3843 108.901 76.7225 107.358 76.6766C105.815 76.6307 104.307 76.2021 102.97 75.4293V75.4289L107.646 72.0409C109.276 72.9516 110.695 74.1955 111.812 75.6915V75.6923Z" fill="black"/>
</svg>
