<svg width="893" height="1264" viewBox="0 0 893 1264" fill="none" xmlns="http://www.w3.org/2000/svg">
<path d="M459.874 18.381C417.293 38.368 365.651 83.5037 386.851 137.682C408.051 191.861 459.874 175.372 506.986 154.171C554.098 132.971 598.854 74.4676 582.365 34.2294C565.876 -6.00876 517.586 -8.7083 459.874 18.381Z" fill="#FF577F"/>
<path d="M353.875 142.05C397.507 181.968 326.786 281.03 300.875 329.319C274.963 377.609 263.185 495.389 291.452 596.679C219.607 594.323 118.316 596.679 118.316 596.679C118.316 596.679 101.827 371.72 165.428 266.896C229.029 162.073 298.519 91.4045 353.875 142.05Z" fill="#3C94FF"/>
<path d="M286.447 217.428C299.05 239.196 415.122 464.766 415.122 464.766H483.898L490.501 102.004L466.945 87.3848L431.611 391.742C431.611 391.742 317.169 214.966 310.298 203C297.195 180.181 275.111 197.848 286.447 217.428Z" fill="#3C94FF"/>
<path d="M466.943 87.3849C466.943 87.3849 510.905 40.418 525.539 60.1928C536.433 74.9153 490.499 102.005 490.499 102.005" stroke="black" stroke-width="8.70805" stroke-linecap="round" stroke-linejoin="round"/>
<path d="M376.253 464.767H777.294V527.778L376.253 523.359V464.767Z" fill="#3C94FF"/>
<path d="M749.747 1226.19L713.455 1225.75L714.238 529.261L746.852 529.618L749.747 1226.19Z" fill="black" stroke="black" stroke-width="4.35403"/>
<path d="M368.591 1223.86V1254.77L891.531 1261.84V1230.04L368.591 1223.86Z" fill="#3C94FF"/>
<path d="M458.483 620.179L291.451 596.679C235.761 595.241 177.917 595.336 118.315 596.679C118.315 596.679 103.3 700.031 155.417 754.798C221.819 755.505 302.345 756.211 348.654 760.08C356.48 760.726 363.901 763.829 369.857 768.946C375.813 774.063 379.999 780.932 381.817 788.571C401.774 872.277 454.642 1061.13 460.172 1156.72C492.267 1157.78 524.656 1157.51 524.656 1157.51C524.656 1157.51 549.726 860.291 522.517 682.458C520.048 666.534 512.466 651.846 500.914 640.611C489.363 629.376 474.469 622.204 458.483 620.179Z" fill="#FF577F"/>
<path d="M66.3494 178.579L66.3493 178.582C62.8597 250.453 53.9904 507.891 91.9458 730.019C78.0003 732.264 64.3355 735.994 51.1848 741.146C51.1638 740.994 51.1419 740.836 51.1193 740.672C50.8266 738.546 50.3995 735.391 49.8624 731.274C48.7882 723.041 47.2741 710.963 45.516 695.592C41.9998 664.851 37.5075 620.942 33.6054 568.285C25.8004 462.961 20.3597 322.683 29.7988 182.786C29.946 180.685 30.6963 178.672 31.9597 176.987C33.2235 175.302 34.9471 174.018 36.9232 173.289L36.9238 173.288C42.6962 171.156 47.6265 169.351 51.7846 167.839L51.7867 167.839C53.47 167.225 55.2789 167.037 57.0523 167.292C58.8257 167.547 60.5083 168.237 61.9502 169.301C63.3921 170.364 64.5484 171.768 65.316 173.387C66.0836 175.006 66.4386 176.789 66.3494 178.579Z" fill="black" stroke="black" stroke-width="4.35403"/>
<path d="M189.8 784.232C189.8 784.232 203.998 876.7 203.115 922.634C202.231 968.568 202.102 1023.34 189.8 1055.14H257.882C243.164 1011.47 235.414 965.76 234.915 919.684C234.915 846.666 235.995 805.717 242.08 784.232C226.024 784.806 189.8 784.232 189.8 784.232Z" fill="#3C94FF"/>
<path d="M189.798 1055.13L35.2783 1095.77L41.461 1114.32L219.898 1055.13H189.798Z" fill="#3C94FF"/>
<path d="M209.3 1139.05H237.57L233.151 1055.13H219.902L209.3 1139.05Z" fill="#3C94FF"/>
<path d="M348.273 1121.48L233.148 1055.13H257.884L368.589 1110.88L348.273 1121.48Z" fill="#3C94FF"/>
<path d="M172.243 1090.18L189.799 1094.71L219.898 1055.13H204.881L172.243 1090.18Z" fill="#3C94FF"/>
<path d="M43.757 1111.28C43.757 1122.76 34.449 1132.07 22.967 1132.07C11.485 1132.07 2.17701 1122.76 2.17701 1111.28C2.17701 1099.79 11.485 1090.49 22.967 1090.49C34.449 1090.49 43.757 1099.79 43.757 1111.28Z" fill="black" stroke="black" stroke-width="4.35403"/>
<path d="M193.949 1101.81C193.949 1111.44 186.147 1119.24 176.523 1119.24C166.898 1119.24 159.096 1111.44 159.096 1101.81C159.096 1092.19 166.898 1084.39 176.523 1084.39C186.147 1084.39 193.949 1092.19 193.949 1101.81Z" fill="black" stroke="black" stroke-width="4.35403"/>
<path d="M250.171 1163.21C250.171 1177.75 238.384 1189.54 223.844 1189.54C209.304 1189.54 197.517 1177.75 197.517 1163.21C197.517 1148.67 209.304 1136.89 223.844 1136.89C238.384 1136.89 250.171 1148.67 250.171 1163.21Z" fill="black" stroke="black" stroke-width="4.35403"/>
<path d="M394.917 1121.48C394.917 1136.02 383.13 1147.81 368.59 1147.81C354.05 1147.81 342.263 1136.02 342.263 1121.48C342.263 1106.94 354.05 1095.15 368.59 1095.15C383.13 1095.15 394.917 1106.94 394.917 1121.48Z" fill="black" stroke="black" stroke-width="4.35403"/>
<path d="M457.521 1196.06L602.39 1199.71C602.39 1199.71 601.802 1164.97 565.879 1164.38C529.956 1163.79 524.656 1157.51 524.656 1157.51L460.172 1156.72L457.521 1196.06Z" fill="#3C94FF"/>
<path d="M163.477 757.06C224.751 757.707 295.944 758.458 341.002 761.673C340.629 761.848 340.239 762.029 339.832 762.215C334.545 764.626 326.396 767.847 315.048 771.022C292.352 777.369 256.842 783.535 205.802 782.655C154.841 781.776 116.001 771.674 89.9327 761.816C76.8974 756.887 67.0537 752.018 60.4844 748.392C57.8229 746.924 55.6989 745.659 54.1181 744.677C67.025 739.732 80.4275 736.181 94.0968 734.088C113.774 744.103 128.914 749.805 139.196 753.012C144.392 754.632 148.346 755.614 151.018 756.194C152.354 756.484 153.369 756.673 154.058 756.791C154.403 756.849 154.666 756.89 154.847 756.917C154.937 756.93 155.007 756.94 155.057 756.947L155.115 756.955L155.133 756.957L155.139 756.958L155.141 756.958C155.142 756.958 155.143 756.958 155.413 754.798L155.143 756.958L155.277 756.975H155.402C158.072 757.003 160.765 757.032 163.477 757.06Z" fill="black" stroke="black" stroke-width="4.35403"/>
<path d="M198.108 1055.14H252.347" stroke="black" stroke-width="8.70805" stroke-linecap="round" stroke-linejoin="round"/>
<path d="M376.253 464.766H777.292" stroke="black" stroke-width="8.70805" stroke-linecap="round" stroke-linejoin="round"/>
<path d="M431.611 391.743C431.611 391.743 317.169 214.967 310.298 203.001C297.195 180.181 275.111 197.848 286.447 217.429C299.05 239.196 415.122 464.766 415.122 464.766" stroke="black" stroke-width="8.70805" stroke-linecap="round" stroke-linejoin="round"/>
<path d="M145.37 581.607C145.37 581.607 138.613 468.671 150.197 408.825" stroke="black" stroke-width="8.70805" stroke-linecap="round" stroke-linejoin="round"/>
<path d="M140.54 620.217C140.54 620.217 133.783 682.959 167.567 734.118" stroke="black" stroke-width="8.70805" stroke-linecap="round" stroke-linejoin="round"/>
</svg>
